<svg xmlns="http://www.w3.org/2000/svg" width="339.406" height="337.776" viewBox="0 0 339.406 337.776">
  <g id="undraw_Add_notes_re_ln36" transform="translate(0)">
    <path id="Caminho_1" data-name="Caminho 1" d="M650.02,299.466H594.312a8.018,8.018,0,0,1-6.333-3.069h0a8.119,8.119,0,0,1-1.521-6.964,140.86,140.86,0,0,0,0-65.422,8.121,8.121,0,0,1,1.521-6.963,8.019,8.019,0,0,1,6.334-3.069h55.708a8.12,8.12,0,0,1,7.991,6.815,236.1,236.1,0,0,1,0,71.857A8.12,8.12,0,0,1,650.02,299.466Z" transform="translate(-426.146 -209.976)" fill="#e6e6e6"/>
    <path id="Caminho_2" data-name="Caminho 2" d="M596.121,219.978a3.851,3.851,0,0,0-3.042,1.473,3.954,3.954,0,0,0-.736,3.391,145.07,145.07,0,0,1,0,67.377,3.951,3.951,0,0,0,.735,3.39h0a3.85,3.85,0,0,0,3.042,1.473h55.708a3.9,3.9,0,0,0,3.848-3.26,231.924,231.924,0,0,0,0-70.584,3.9,3.9,0,0,0-3.848-3.26Z" transform="translate(-427.955 -211.785)" fill="#fff"/>
    <path id="Caminho_3" data-name="Caminho 3" d="M645.721,244.506H616.488a4.2,4.2,0,0,1-4.192-4.192v-1.638a4.2,4.2,0,0,1,4.192-4.191h29.233a4.2,4.2,0,0,1,4.191,4.191v1.638A4.2,4.2,0,0,1,645.721,244.506Z" transform="translate(-434.003 -216.157)" fill="#e6e6e6"/>
    <path id="Caminho_4" data-name="Caminho 4" d="M645.721,274.131H616.488a4.2,4.2,0,0,1-4.192-4.191V268.3a4.2,4.2,0,0,1,4.192-4.191h29.233a4.2,4.2,0,0,1,4.191,4.191v1.638A4.2,4.2,0,0,1,645.721,274.131Z" transform="translate(-434.003 -225.086)" fill="#e6e6e6"/>
    <path id="Caminho_5" data-name="Caminho 5" d="M645.721,303.757H616.488a4.2,4.2,0,0,1-4.192-4.191v-1.638a4.2,4.2,0,0,1,4.192-4.191h29.233a4.2,4.2,0,0,1,4.191,4.191v1.638A4.2,4.2,0,0,1,645.721,303.757Z" transform="translate(-434.003 -234.015)" fill="#e6e6e6"/>
    <path id="Caminho_6" data-name="Caminho 6" d="M800.02,375.466H744.312a8.019,8.019,0,0,1-6.333-3.069h0a8.119,8.119,0,0,1-1.521-6.964,140.861,140.861,0,0,0,0-65.422,8.121,8.121,0,0,1,1.521-6.963,8.018,8.018,0,0,1,6.333-3.069h55.708a8.12,8.12,0,0,1,7.991,6.815,236.1,236.1,0,0,1,0,71.857,8.12,8.12,0,0,1-7.991,6.815Z" transform="translate(-471.355 -232.882)" fill="#e6e6e6"/>
    <path id="Caminho_7" data-name="Caminho 7" d="M746.121,295.978a3.851,3.851,0,0,0-3.042,1.473,3.954,3.954,0,0,0-.736,3.391,145.071,145.071,0,0,1,0,67.377,3.951,3.951,0,0,0,.736,3.39h0a3.85,3.85,0,0,0,3.042,1.473h55.708a3.9,3.9,0,0,0,3.848-3.26,231.928,231.928,0,0,0,0-70.584,3.9,3.9,0,0,0-3.849-3.26Z" transform="translate(-473.164 -234.691)" fill="#fff"/>
    <path id="Caminho_8" data-name="Caminho 8" d="M640.869,461.664H585.161a8.366,8.366,0,0,1-6.608-3.2,8.466,8.466,0,0,1-1.586-7.261,140.512,140.512,0,0,0,0-65.259,8.468,8.468,0,0,1,1.586-7.261,8.366,8.366,0,0,1,6.608-3.2h55.708a8.472,8.472,0,0,1,8.336,7.111,236.444,236.444,0,0,1,0,71.964,8.472,8.472,0,0,1-8.336,7.111Z" transform="translate(-423.282 -258.652)" fill="#f2f2f2"/>
    <path id="Caminho_9" data-name="Caminho 9" d="M795.721,335.506H766.488a4.2,4.2,0,0,1-4.191-4.191v-1.638a4.2,4.2,0,0,1,4.191-4.191h29.233a4.2,4.2,0,0,1,4.191,4.191v1.638A4.2,4.2,0,0,1,795.721,335.506Z" transform="translate(-479.212 -243.584)" fill="#e6e6e6"/>
    <path id="Caminho_10" data-name="Caminho 10" d="M795.721,365.131H766.488a4.2,4.2,0,0,1-4.191-4.191V359.3a4.2,4.2,0,0,1,4.191-4.191h29.233a4.2,4.2,0,0,1,4.192,4.191v1.638A4.2,4.2,0,0,1,795.721,365.131Z" transform="translate(-479.212 -252.513)" fill="#e6e6e6"/>
    <circle id="Elipse_1" data-name="Elipse 1" cx="16.068" cy="16.068" r="16.068" transform="translate(173.821 143.563)" fill="#fff"/>
    <path id="Caminho_11" data-name="Caminho 11" d="M632.359,430.435H626.77v-5.589a2.1,2.1,0,1,0-4.192,0v5.589H616.99a2.1,2.1,0,1,0,0,4.192h5.589v5.589a2.1,2.1,0,1,0,4.192,0v-5.589h5.589a2.1,2.1,0,0,0,0-4.192Z" transform="translate(-434.786 -272.899)" fill="#e6e6e6"/>
    <path id="Caminho_12" data-name="Caminho 12" d="M643.879,220.126H614.538a3.147,3.147,0,0,1-3.144-3.144v-5.589a3.147,3.147,0,0,1,3.144-3.144h29.341a3.147,3.147,0,0,1,3.144,3.144v5.589A3.147,3.147,0,0,1,643.879,220.126Z" transform="translate(-433.731 -208.25)" fill="#ccc"/>
    <path id="Caminho_13" data-name="Caminho 13" d="M795.879,297.126H766.538a3.147,3.147,0,0,1-3.144-3.144v-5.589a3.147,3.147,0,0,1,3.144-3.144h29.341a3.147,3.147,0,0,1,3.144,3.144v5.589A3.147,3.147,0,0,1,795.879,297.126Z" transform="translate(-479.543 -231.457)" fill="#ccc"/>
    <path id="Caminho_14" data-name="Caminho 14" d="M88.6,456.809H97.16l2.678-33.036H88.594Z" transform="translate(-26.702 -127.723)" fill="#ffb8b8"/>
    <path id="Caminho_15" data-name="Caminho 15" d="M442.552,675.308H459.42a10.749,10.749,0,0,1,10.749,10.749v.349H442.553Z" transform="translate(-382.843 -349.019)" fill="#2f2e41"/>
    <path id="Caminho_16" data-name="Caminho 16" d="M22.6,456.809H31.16l4.075-33.036H22.594Z" transform="translate(-6.81 -127.723)" fill="#ffb8b8"/>
    <path id="Caminho_17" data-name="Caminho 17" d="M376.552,675.308H393.42a10.749,10.749,0,0,1,10.749,10.749v.349H376.553Z" transform="translate(-362.951 -349.019)" fill="#2f2e41"/>
    <path id="Caminho_18" data-name="Caminho 18" d="M378.868,609.8a3.481,3.481,0,0,1-2.357-.921h0a3.465,3.465,0,0,1-1.129-2.471l-3.435-123.1,48.77,12.192,15.048,45.142a49.223,49.223,0,0,1,2.477,18.041l-1.868,43.758a3.49,3.49,0,0,1-3.489,3.325H424.7a3.509,3.509,0,0,1-3.461-3.025l-5.847-48.3a26.423,26.423,0,0,0-3.865-10.594l-11.506-18.217a.7.7,0,0,0-1.284.287l-9.029,80.4a3.488,3.488,0,0,1-3.274,3.071l-7.372.41C379,609.8,378.934,609.8,378.868,609.8Z" transform="translate(-361.563 -291.15)" fill="#2f2e41"/>
    <circle id="Elipse_2" data-name="Elipse 2" cx="17.158" cy="17.158" r="17.158" transform="translate(33.88 78.135)" fill="#ffb8b8"/>
    <path id="Caminho_19" data-name="Caminho 19" d="M419.037,467.372a3.543,3.543,0,0,1-.875-.111h0l-48.388-12.407a3.492,3.492,0,0,1-2.559-4.063l11.113-59.864a21.806,21.806,0,0,1,12.749-15.746,21.037,21.037,0,0,1,19.746,1.45c.677.423,1.36.884,2.028,1.37a21.629,21.629,0,0,1,8.788,17.136l.884,68.693a3.5,3.5,0,0,1-3.485,3.543Z" transform="translate(-360.116 -258.02)" fill="#00bf72"/>
    <path id="Caminho_20" data-name="Caminho 20" d="M377.508,493.729a7.025,7.025,0,0,1,2.944-10.362L378.3,458.5l11.405,6.182.3,22.671a7.063,7.063,0,0,1-12.492,6.381Z" transform="translate(-362.873 -283.673)" fill="#ffb8b8"/>
    <path id="Caminho_21" data-name="Caminho 21" d="M379.406,455.164a3.849,3.849,0,0,1-3.729-2.906l-5.6-22.274a33.093,33.093,0,0,1,2.628-23.148l11.743-22.971a10.857,10.857,0,0,1,13.139-7.7,10.728,10.728,0,0,1,6.619,4.961,10.875,10.875,0,0,1,1.155,8.323l-16.716,37.38.2,22.38a3.855,3.855,0,0,1-2.5,3.636l-5.594,2.077a3.829,3.829,0,0,1-1.335.241Z" transform="translate(-360.696 -258.759)" fill="#00bf72"/>
    <path id="Caminho_22" data-name="Caminho 22" d="M487.1,483.671a7.025,7.025,0,0,1-5.933-8.991l-20.255-14.593,12.125-4.612,17.376,14.565a7.063,7.063,0,0,1-3.313,13.631Z" transform="translate(-388.377 -282.762)" fill="#ffb8b8"/>
    <path id="Caminho_23" data-name="Caminho 23" d="M461.774,450.986a3.859,3.859,0,0,1-1.72-.406L439.515,440.3a33.1,33.1,0,0,1-15.831-17.092l-9.751-23.886a10.859,10.859,0,0,1,2.737-14.981,10.725,10.725,0,0,1,8.1-1.777,10.877,10.877,0,0,1,7.042,4.549l17.427,37.054,17.092,14.449a3.854,3.854,0,0,1,1.122,4.27l-2.075,5.595a3.843,3.843,0,0,1-3.6,2.507Z" transform="translate(-373.652 -260.734)" fill="#00bf72"/>
    <path id="Caminho_24" data-name="Caminho 24" d="M418.321,353.11c.912.4,2.779-6.865,1.942-8.318-1.244-2.161-1.17-2.145-2-3.575a4.145,4.145,0,0,1,.059-4.644c1.069-1.258,3.543-1.091,4.031.486-.314-3,2.649-5.4,5.584-6.08s6.031-.257,8.982-.859c3.425-.7,6.988-3.57,5.622-7.336a5.3,5.3,0,0,0-1.035-1.7c-1.579-1.775-3.787-2.533-5.947-3.266-4.492-1.525-9.107-3.068-13.848-2.9a20.118,20.118,0,0,0-17.777,13,18.281,18.281,0,0,0-.757,2.812,18.858,18.858,0,0,0,11.706,20.712Z" transform="translate(-370.886 -240.395)" fill="#2f2e41"/>
    <path id="Caminho_25" data-name="Caminho 25" d="M38.9,252.848l.389-23,12.186-24.5-9.78,25.15Z" transform="translate(-11.724 -61.889)" opacity="0.2"/>
    <path id="Caminho_26" data-name="Caminho 26" d="M529.818,520.683,478.375,499.31a8.018,8.018,0,0,1-4.671-5.264h0a8.119,8.119,0,0,1,1.268-7.014,140.86,140.86,0,0,0,25.1-60.415,8.121,8.121,0,0,1,4.076-5.847,8.019,8.019,0,0,1,7.026-.4l51.444,21.374a8.12,8.12,0,0,1,4.765,9.36,236.1,236.1,0,0,1-27.571,66.358,8.12,8.12,0,0,1-9.995,3.227Z" transform="translate(-392.14 -271.992)" fill="#e6e6e6"/>
    <path id="Caminho_27" data-name="Caminho 27" d="M511.376,426.045a3.851,3.851,0,0,0-3.374.193,3.954,3.954,0,0,0-1.981,2.849,145.069,145.069,0,0,1-25.851,62.221,3.952,3.952,0,0,0-.621,3.413h0a3.85,3.85,0,0,0,2.244,2.528l51.444,21.374a3.9,3.9,0,0,0,4.8-1.534,231.932,231.932,0,0,0,27.082-65.182,3.9,3.9,0,0,0-2.3-4.487Z" transform="translate(-393.949 -273.802)" fill="#fff"/>
    <path id="Caminho_28" data-name="Caminho 28" d="M551.619,485.311l-27-11.216a4.2,4.2,0,0,1-2.262-5.479l.628-1.513a4.2,4.2,0,0,1,5.479-2.262l27,11.216a4.2,4.2,0,0,1,2.262,5.479l-.628,1.513a4.2,4.2,0,0,1-5.479,2.263Z" transform="translate(-406.8 -285.489)" fill="#00bf72"/>
    <path id="Caminho_29" data-name="Caminho 29" d="M540.252,512.67l-27-11.216a4.2,4.2,0,0,1-2.262-5.479l.628-1.513A4.2,4.2,0,0,1,517.1,492.2l27,11.217a4.2,4.2,0,0,1,2.262,5.479l-.628,1.513A4.2,4.2,0,0,1,540.252,512.67Z" transform="translate(-403.374 -293.735)" fill="#00bf72"/>
    <path id="Caminho_30" data-name="Caminho 30" d="M566.772,446.138a3.135,3.135,0,0,1-1.179-.231l-27.2-11a3.147,3.147,0,0,1-1.736-4.093l2.095-5.181a3.144,3.144,0,0,1,4.093-1.736l27.2,11a3.147,3.147,0,0,1,1.736,4.093l-2.095,5.182A3.151,3.151,0,0,1,566.772,446.138Z" transform="translate(-411.136 -273.176)" fill="#ccc"/>
    <path id="Caminho_31" data-name="Caminho 31" d="M455.586,691.147h-97.8a.7.7,0,0,1,0-1.4h97.8a.7.7,0,0,1,0,1.4Z" transform="translate(-357.083 -353.372)" fill="#ccc"/>
  </g>
</svg>
