<svg xmlns="http://www.w3.org/2000/svg" xmlns:xlink="http://www.w3.org/1999/xlink" width="256" height="256" viewBox="0 0 256 256"><defs><style>.a{clip-path:url(#f);}.b{fill:url(#a);}.c,.d{fill:#fff;}.d{font-size:179px;font-family:BerlinSansFBDemi-Bold, Berlin Sans FB Demi;font-weight:700;}.e{fill:rgba(183,28,69,0);}.f{filter:url(#b);}</style><linearGradient id="a" x1="0.883" y1="0.932" x2="0.132" y2="0.129" gradientUnits="objectBoundingBox"><stop offset="0" stop-color="#4c5fe1"/><stop offset="1" stop-color="#6474e4"/></linearGradient><filter id="b"><feOffset dy="3" input="SourceAlpha"/><feGaussianBlur stdDeviation="3" result="c"/><feFlood flood-opacity="0.161" result="d"/><feComposite operator="out" in="SourceGraphic" in2="c"/><feComposite operator="in" in="d"/><feComposite operator="in" in2="SourceGraphic"/></filter><clipPath id="f"><rect width="256" height="256"/></clipPath></defs><g id="e" class="a"><rect class="e" width="256" height="256"/><rect class="b" width="177" height="182" rx="15" transform="translate(40 37)"/><path class="c" d="M15-2.5H162A17.488,17.488,0,0,1,179.5,15V167A17.488,17.488,0,0,1,162,184.5H15A17.488,17.488,0,0,1-2.5,167V15A17.488,17.488,0,0,1,15-2.5Zm147,182A12.5,12.5,0,0,0,174.5,167V15A12.5,12.5,0,0,0,162,2.5H15A12.5,12.5,0,0,0,2.5,15V167A12.5,12.5,0,0,0,15,179.5Z" transform="translate(40 37)"/><g data-type="innerShadowGroup"><text class="d" transform="translate(64 192)"><tspan x="0" y="0">D</tspan></text><g class="f" transform="matrix(1, 0, 0, 1, 0, 0)"><text class="d" transform="translate(64 192)"><tspan x="0" y="0">D</tspan></text></g></g></g></svg>